<svg width="32" height="32" viewBox="0 0 32 32" fill="none" xmlns="http://www.w3.org/2000/svg">
<g id="appstore" clip-path="url(#clip0_2111_32)">
<path id="Vector" d="M11.9076 20.0184L19.7997 5.76224C19.9082 5.56591 20.0167 5.37216 20.1148 5.16937C20.2039 4.98595 20.2789 4.80124 20.3279 4.60103C20.4313 4.17995 20.4029 3.74078 20.2427 3.33907C20.0872 2.94331 19.8058 2.6097 19.4419 2.3897C19.0848 2.17352 18.6647 2.08558 18.2509 2.14041C17.8376 2.19595 17.4592 2.39099 17.1608 2.69582C17.0187 2.83791 16.9024 2.99937 16.7952 3.17116C16.6764 3.35974 16.5692 3.55607 16.4607 3.75241L15.9621 4.6527L15.4622 3.75112C15.3537 3.55607 15.2465 3.35974 15.1277 3.17116C15.023 2.99982 14.9005 2.84005 14.7622 2.69453C14.471 2.39305 14.0871 2.19794 13.672 2.14041C13.2586 2.08588 12.839 2.17381 12.4824 2.3897C12.1185 2.6097 11.8371 2.94331 11.6815 3.33907C11.5219 3.74048 11.4921 4.18181 11.5963 4.60103C11.6454 4.80124 11.7203 4.98595 11.8081 5.16937C11.9063 5.37216 12.0148 5.56591 12.1233 5.76224L13.7353 8.67366L7.4552 20.0171H3.15137C2.93437 20.0171 2.71737 20.0171 2.50166 20.03C2.30532 20.0416 2.11416 20.0662 1.92299 20.1217C1.52257 20.2379 1.17124 20.4834 0.918074 20.8295C0.664977 21.1779 0.528553 21.5974 0.528321 22.028C0.528089 22.4586 0.664061 22.8782 0.916782 23.2269C1.17124 23.573 1.52128 23.8172 1.92299 23.9347C2.11416 23.9902 2.30532 24.0148 2.50166 24.0264C2.71737 24.0393 2.93437 24.0393 3.15137 24.0393H20.0683C20.1197 23.9263 20.1629 23.8098 20.1975 23.6906C20.7335 21.8616 19.4018 20.0171 17.5689 20.0171L11.9076 20.0184ZM4.55024 24.6968L3.52724 26.6343C3.42132 26.8358 3.31412 27.0347 3.21853 27.2427C3.13033 27.4299 3.06109 27.6255 3.01187 27.8265C2.90822 28.2568 2.93703 28.7084 3.09453 29.122C3.25082 29.5328 3.52595 29.8751 3.87857 30.0972C4.2312 30.3194 4.63937 30.4098 5.04237 30.3517C5.44795 30.2949 5.81737 30.0959 6.10928 29.7834C6.24878 29.6348 6.36245 29.4708 6.46837 29.2951C6.58462 29.1014 6.68924 28.8999 6.79516 28.6984L8.27928 25.8877C8.16303 25.694 7.05607 23.989 4.55024 24.6968ZM31.1405 20.814C30.8913 20.4768 30.5375 20.2316 30.1343 20.1165C29.9455 20.0641 29.7514 20.0333 29.5556 20.0248C29.3386 20.0119 29.1229 20.0119 28.9059 20.0119H24.6163L18.9459 9.91753C18.2016 10.6984 17.7163 11.6898 17.556 12.7566C17.3479 14.0908 17.5964 15.4563 18.2613 16.6316L25.0735 28.7642C25.182 28.958 25.2892 29.1517 25.4081 29.3377C25.5166 29.5057 25.6328 29.6645 25.7736 29.8079C26.072 30.1076 26.4504 30.2987 26.8651 30.3543C27.2797 30.4098 27.6956 30.3233 28.056 30.1089C28.4184 29.8921 28.7001 29.5628 28.8581 29.1711C29.0196 28.7746 29.0467 28.3419 28.9434 27.9259C28.8923 27.7321 28.8209 27.5442 28.7302 27.3654C28.6334 27.1652 28.5236 26.974 28.4151 26.7802L26.8444 23.9825H28.9059C29.1229 23.9825 29.3386 23.9825 29.5556 23.9709C29.7519 23.9592 29.9431 23.9347 30.1343 23.8804C30.5381 23.7653 30.8925 23.5196 31.1418 23.1817C31.3942 22.8389 31.53 22.4242 31.5293 21.9985C31.53 21.5728 31.3942 21.1581 31.1418 20.8153" fill="white"/>
</g>
<defs>
<clipPath id="clip0_2111_32">
<rect width="31" height="31" fill="white" transform="translate(0.529297 0.747559)"/>
</clipPath>
</defs>
</svg>
