<svg width="35" height="35" viewBox="0 0 35 35" fill="none" xmlns="http://www.w3.org/2000/svg">
<g id="instagram">
<path id="Vector" d="M24.6477 3.13062H10.53C6.63153 3.13062 3.47119 6.29096 3.47119 10.1894V24.3071C3.47119 28.2056 6.63153 31.3659 10.53 31.3659H24.6477C28.5461 31.3659 31.7065 28.2056 31.7065 24.3071V10.1894C31.7065 6.29096 28.5461 3.13062 24.6477 3.13062Z" stroke="white" stroke-width="2.82353" stroke-linecap="round" stroke-linejoin="round"/>
<path id="Vector_2" d="M23.2355 16.3576C23.4097 17.5325 23.209 18.7324 22.662 19.7867C22.1149 20.8411 21.2493 21.696 20.1884 22.23C19.1274 22.764 17.9251 22.9499 16.7524 22.7612C15.5797 22.5725 14.4963 22.0188 13.6564 21.179C12.8165 20.3391 12.2629 19.2557 12.0742 18.083C11.8855 16.9103 12.0713 15.708 12.6054 14.647C13.1394 13.5861 13.9943 12.7205 15.0486 12.1734C16.1029 11.6264 17.3029 11.4257 18.4778 11.5999C19.6763 11.7776 20.7859 12.3361 21.6426 13.1928C22.4993 14.0495 23.0578 15.1591 23.2355 16.3576Z" stroke="white" stroke-width="2.82353" stroke-linecap="round" stroke-linejoin="round"/>
<path id="Vector_3" d="M25.3521 9.48218H25.366" stroke="white" stroke-width="2.82353" stroke-linecap="round" stroke-linejoin="round"/>
</g>
</svg>
