<svg width="35" height="35" viewBox="0 0 35 35" fill="none" xmlns="http://www.w3.org/2000/svg">
<g id="linkedin">
<path id="Vector" d="M23.3524 11.6013C25.599 11.6013 27.7535 12.4938 29.342 14.0823C30.9306 15.6708 31.823 17.8254 31.823 20.0719V29.9543H26.176V20.0719C26.176 19.3231 25.8785 18.6049 25.349 18.0754C24.8194 17.5459 24.1013 17.2484 23.3524 17.2484C22.6036 17.2484 21.8854 17.5459 21.3559 18.0754C20.8264 18.6049 20.5289 19.3231 20.5289 20.0719V29.9543H14.8818V20.0719C14.8818 17.8254 15.7743 15.6708 17.3628 14.0823C18.9514 12.4938 21.1059 11.6013 23.3524 11.6013Z" stroke="white" stroke-width="2.82353" stroke-linecap="round" stroke-linejoin="round"/>
<path id="Vector_2" d="M9.23593 13.0134H3.58887V29.9546H9.23593V13.0134Z" stroke="white" stroke-width="2.82353" stroke-linecap="round" stroke-linejoin="round"/>
<path id="Vector_3" d="M6.4124 8.77767C7.97179 8.77767 9.23593 7.51354 9.23593 5.95414C9.23593 4.39475 7.97179 3.13062 6.4124 3.13062C4.853 3.13062 3.58887 4.39475 3.58887 5.95414C3.58887 7.51354 4.853 8.77767 6.4124 8.77767Z" stroke="white" stroke-width="2.82353" stroke-linecap="round" stroke-linejoin="round"/>
</g>
</svg>
