<svg width="128" height="130" viewBox="0 0 128 130" fill="none" xmlns="http://www.w3.org/2000/svg">
<g clip-path="url(#clip0_1369_1219)">
<path d="M2.7318 64.2281C2.7288 75.0666 5.5608 85.6496 10.9458 94.9776L2.2168 126.849L34.8328 118.297C43.854 123.208 53.9615 125.781 64.2328 125.782H64.2598C98.1673 125.782 125.769 98.1901 125.783 64.2766C125.79 47.8431 119.396 32.3901 107.779 20.7641C96.1638 9.13907 80.7163 2.73357 64.2573 2.72607C30.3458 2.72607 2.7463 30.3161 2.7323 64.2281" fill="url(#paint0_linear_1369_1219)"/>
<path d="M0.535 64.208C0.5315 75.4365 3.465 86.398 9.042 96.06L0 129.074L33.7855 120.215C43.0945 125.29 53.5755 127.966 64.2405 127.97H64.268C99.392 127.97 127.985 99.3865 128 64.259C128.006 47.235 121.382 31.2265 109.35 19.184C97.3165 7.143 81.3165 0.507 64.268 0.5C29.138 0.5 0.549 29.08 0.535 64.208ZM20.6555 94.396L19.394 92.3935C14.091 83.9615 11.292 74.2175 11.296 64.212C11.307 35.0145 35.069 11.26 64.288 11.26C78.438 11.266 91.736 16.782 101.738 26.79C111.74 36.799 117.243 50.104 117.24 64.255C117.227 93.4525 93.464 117.21 64.268 117.21H64.247C54.7405 117.205 45.417 114.652 37.286 109.827L35.351 108.68L15.302 113.937L20.6555 94.396Z" fill="url(#paint1_linear_1369_1219)"/>
<path d="M48.3388 37.574C47.1458 34.9225 45.8903 34.869 44.7558 34.8225C43.8268 34.7825 42.7648 34.7855 41.7038 34.7855C40.6418 34.7855 38.9163 35.185 37.4578 36.7775C35.9978 38.3715 31.8838 42.2235 31.8838 50.058C31.8838 57.8925 37.5903 65.4645 38.3858 66.528C39.1823 67.5895 49.4023 84.1814 65.5883 90.5644C79.0403 95.8689 81.7778 94.8139 84.6973 94.5479C87.6173 94.2829 94.1193 90.6969 95.4458 86.9785C96.7733 83.2605 96.7733 80.0735 96.3753 79.4075C95.9773 78.7439 94.9153 78.3455 93.3228 77.5494C91.7303 76.7534 83.9008 72.9005 82.4413 72.369C80.9813 71.838 79.9198 71.573 78.8578 73.1675C77.7958 74.7595 74.7463 78.3455 73.8168 79.4075C72.8883 80.472 71.9588 80.6045 70.3668 79.8079C68.7733 79.0089 63.6448 77.3294 57.5603 71.9049C52.8263 67.6839 49.6303 62.4715 48.7013 60.877C47.7723 59.285 48.6018 58.422 49.4003 57.6285C50.1158 56.915 50.9933 55.769 51.7903 54.8395C52.5843 53.9095 52.8493 53.246 53.3803 52.184C53.9118 51.121 53.6458 50.191 53.2483 49.3945C52.8493 48.598 49.7548 40.7225 48.3388 37.574Z" fill="white"/>
</g>
<defs>
<linearGradient id="paint0_linear_1369_1219" x1="6180.54" y1="12415" x2="6180.54" y2="2.72607" gradientUnits="userSpaceOnUse">
<stop stop-color="#1FAF38"/>
<stop offset="1" stop-color="#60D669"/>
</linearGradient>
<linearGradient id="paint1_linear_1369_1219" x1="6400" y1="12857.9" x2="6400" y2="0.5" gradientUnits="userSpaceOnUse">
<stop stop-color="#F9F9F9"/>
<stop offset="1" stop-color="white"/>
</linearGradient>
<clipPath id="clip0_1369_1219">
<rect width="128" height="129" fill="white" transform="translate(0 0.5)"/>
</clipPath>
</defs>
</svg>
