<svg width="50" height="51" viewBox="0 0 50 51" fill="none" xmlns="http://www.w3.org/2000/svg">
<path d="M27.7064 7.05811L45.6939 38.2123C45.9681 38.6873 46.1125 39.2262 46.1125 39.7747C46.1125 40.3233 45.9682 40.8622 45.6939 41.3372C45.4196 41.8123 45.0251 42.2068 44.5501 42.4811C44.075 42.7554 43.5362 42.8998 42.9876 42.8998H7.01262C6.46407 42.8998 5.92519 42.7554 5.45014 42.4811C4.97509 42.2068 4.58061 41.8123 4.30635 41.3372C4.03208 40.8622 3.88769 40.3233 3.8877 39.7747C3.8877 39.2262 4.03209 38.6873 4.30637 38.2123L22.2939 7.05811C23.496 4.97477 26.5022 4.97477 27.7064 7.05811ZM25.0001 31.7498C24.4476 31.7498 23.9177 31.9693 23.527 32.36C23.1363 32.7507 22.9168 33.2806 22.9168 33.8331C22.9168 34.3856 23.1363 34.9155 23.527 35.3062C23.9177 35.6969 24.4476 35.9164 25.0001 35.9164C25.5527 35.9164 26.0826 35.6969 26.4733 35.3062C26.864 34.9155 27.0835 34.3856 27.0835 33.8331C27.0835 33.2806 26.864 32.7507 26.4733 32.36C26.0826 31.9693 25.5527 31.7498 25.0001 31.7498ZM25.0001 17.1664C24.4898 17.1665 23.9973 17.3538 23.616 17.6929C23.2347 18.032 22.9911 18.4992 22.9314 19.006L22.9168 19.2498V27.5831C22.9174 28.1141 23.1207 28.6248 23.4852 29.011C23.8497 29.3971 24.3479 29.6294 24.878 29.6605C25.4081 29.6917 25.9301 29.5192 26.3373 29.1784C26.7445 28.8376 27.0062 28.3541 27.0689 27.8269L27.0835 27.5831V19.2498C27.0835 18.6972 26.864 18.1673 26.4733 17.7766C26.0826 17.3859 25.5527 17.1664 25.0001 17.1664Z" fill="#F24822"/>
</svg>
