<svg width="40" height="40" viewBox="0 0 40 40" fill="none" xmlns="http://www.w3.org/2000/svg">
<path d="M36.598 22.8653V35.1636H29.468V23.6886C29.468 20.8053 28.4363 18.8386 25.8563 18.8386C23.8863 18.8386 22.713 20.1653 22.198 21.447C22.0097 21.9053 21.9613 22.5436 21.9613 23.1853V35.1636H14.828C14.828 35.1636 14.9247 15.7303 14.828 13.7153H21.9613V16.7553L21.9147 16.8253H21.9613V16.7553C22.908 15.297 24.5997 13.212 28.388 13.212C33.0797 13.212 36.598 16.2786 36.598 22.8653ZM7.36801 3.37695C4.92967 3.37695 3.33301 4.97695 3.33301 7.08195C3.33301 9.14029 4.88301 10.7886 7.27467 10.7886H7.32134C9.80967 10.7886 11.3547 9.14029 11.3547 7.08195C11.3113 4.97695 9.80967 3.37695 7.36801 3.37695ZM3.75634 35.1636H10.8863V13.7153H3.75634V35.1636Z" fill="#1B1B1F"/>
</svg>
