<svg width="38" height="38" viewBox="0 0 38 38" fill="none" xmlns="http://www.w3.org/2000/svg">
<g clip-path="url(#clip0_723_1376)">
<path d="M14.25 2.375C14.25 3.68867 15.3113 4.75 16.625 4.75C25.8059 4.75 33.25 12.1941 33.25 21.375C33.25 22.6887 34.3113 23.75 35.625 23.75C36.9387 23.75 38 22.6887 38 21.375C38 9.5668 28.4332 0 16.625 0C15.3113 0 14.25 1.06133 14.25 2.375ZM14.25 9.5C14.25 10.8137 15.3113 11.875 16.625 11.875C21.8723 11.875 26.125 16.1277 26.125 21.375C26.125 22.6887 27.1863 23.75 28.5 23.75C29.8137 23.75 30.875 22.6887 30.875 21.375C30.875 13.5078 24.4922 7.125 16.625 7.125C15.3113 7.125 14.25 8.18633 14.25 9.5ZM7.125 10.6875C7.125 8.7207 5.5293 7.125 3.5625 7.125C1.5957 7.125 0 8.7207 0 10.6875V27.3125C0 33.2129 4.78711 38 10.6875 38C16.5879 38 21.375 33.2129 21.375 27.3125C21.375 21.4121 16.5879 16.625 10.6875 16.625H9.5V23.75H10.6875C12.6543 23.75 14.25 25.3457 14.25 27.3125C14.25 29.2793 12.6543 30.875 10.6875 30.875C8.7207 30.875 7.125 29.2793 7.125 27.3125V10.6875Z" fill="#0D99FF"/>
</g>
<defs>
<clipPath id="clip0_723_1376">
<rect width="38" height="38" fill="white"/>
</clipPath>
</defs>
</svg>
