<svg width="30" height="30" viewBox="0 0 30 30" fill="none" xmlns="http://www.w3.org/2000/svg">
<g clip-path="url(#clip0_723_1316)">
<path d="M29.3182 0.681832C29.9432 1.42047 30.0284 2.4716 29.5738 3.83524C29.1193 5.19888 28.3523 6.42047 27.2727 7.50001L23.8423 10.9304L27.2514 25.76C27.3224 26.0298 27.2372 26.2642 26.9957 26.4631L24.2684 28.5085C24.169 28.5938 24.0341 28.6364 23.8636 28.6364C23.8068 28.6364 23.7571 28.6293 23.7145 28.6151C23.5014 28.5725 23.3523 28.4588 23.267 28.2742L17.3224 17.4503L11.804 22.9688L12.9332 27.1023C13.0042 27.3438 12.9474 27.5639 12.7628 27.7628L10.7173 29.8083C10.5895 29.9361 10.4261 30 10.2273 30H10.1846C9.97157 29.9716 9.80112 29.8793 9.67328 29.723L5.64629 24.3537L0.276973 20.3267C0.120722 20.2273 0.028393 20.0639 -1.61415e-05 19.8367C-0.0142207 19.652 0.0496998 19.4744 0.191745 19.304L2.2372 17.2372C2.36504 17.1094 2.52839 17.0455 2.72726 17.0455C2.81248 17.0455 2.8693 17.0526 2.89771 17.0668L7.03123 18.196L12.5497 12.6776L1.72584 6.73297C1.52697 6.61933 1.40623 6.44888 1.36362 6.2216C1.33521 5.99433 1.39913 5.80257 1.55538 5.64632L4.28265 2.91905C4.48152 2.73439 4.69459 2.67757 4.92186 2.74859L19.0909 6.13638L22.5 2.72729C23.5795 1.64774 24.8011 0.880695 26.1648 0.42615C27.5284 -0.0283955 28.5795 0.0568317 29.3182 0.681832Z" fill="#0D99FF"/>
</g>
<defs>
<clipPath id="clip0_723_1316">
<rect width="30" height="30" fill="white"/>
</clipPath>
</defs>
</svg>
