<svg width="30" height="30" viewBox="0 0 30 30" fill="none" xmlns="http://www.w3.org/2000/svg">
<path d="M21.9046 9.24611C23.4773 8.89689 25.5257 7.33596 25.8375 6.56721C26.0203 6.11721 25.1086 5.41408 24.8648 5.13049C24.307 4.48361 24.532 4.16486 24.7476 3.39377C24.9937 2.5172 24.4101 1.54924 23.5828 1.16955C22.7554 0.789861 21.7664 0.909392 20.9343 1.2797C20.1023 1.65002 19.3921 2.24533 18.6961 2.83127C18.1875 2.51017 17.3765 1.0922 16.064 2.0133C15.157 2.64846 15.075 4.03127 15.1921 5.13517C15.4664 7.68283 16.0945 9.00471 17.2781 9.36096C18.7734 9.81096 20.4281 9.57424 21.9046 9.24611Z" fill="#FFCA28"/>
<path d="M24.4594 1.91718C24.2601 5.35077 20.9109 7.62889 19.3219 8.63202L20.3531 9.51796C20.3531 9.51796 21.007 9.53202 21.9023 9.24608C23.4375 8.75858 25.6805 7.38046 25.8351 6.56718C26.0625 5.38358 24.8484 5.64139 24.5742 4.70624C24.4312 4.21171 25.2703 3.27655 24.4594 1.91718ZM18.6984 2.83358C18.6984 2.83358 18.1008 2.22186 17.6578 1.94296C17.4375 2.3578 17.2805 2.8078 17.2031 3.27186C17.0648 4.08749 17.2031 5.2453 17.5289 6.1078C17.5805 6.24139 17.7726 6.2203 17.7937 6.07968C18.075 4.22577 18.6984 2.83358 18.6984 2.83358Z" fill="#E2A610"/>
<path d="M14.5219 8.94376C14.5219 8.94376 7.21176 9.7336 3.9141 16.0805C0.616447 22.4274 3.41957 26.2758 6.38676 27.6774C9.35395 29.0789 16.8305 29.5734 21.6938 28.4203C26.5571 27.2672 27.7735 24.8766 27.5461 22.568C27.2157 19.1977 24.0844 17.1258 24.0844 17.1258C24.0844 17.1258 24.2086 12.9633 20.9789 10.2609C18.1125 7.86095 14.5219 8.94376 14.5219 8.94376Z" fill="#FFCA28"/>
<path d="M17.5219 19.6242C15.954 17.6461 14.1024 17.3812 13.5094 16.6711C13.186 16.2843 12.9962 15.8929 13.0688 15.4078C13.1462 14.8922 13.7438 14.5359 14.2079 14.4492C14.7493 14.3461 16.0407 14.4 17.1258 15.4336C17.3837 15.6773 17.2899 16.057 17.2829 16.3969C17.2641 17.1258 18.3071 17.8336 19.1508 17.2242C19.9969 16.6125 19.3477 15.2508 18.8016 14.5898C18.3891 14.0906 16.8938 12.9914 15.0352 12.8179C14.5126 12.7687 12.4102 12.457 11.1962 14.7656C10.8469 15.4289 10.718 17.032 12.5462 18.3867C12.9282 18.6703 14.911 19.6781 15.4618 20.332C16.4157 21.464 15.7618 22.4601 15.0165 22.5914C12.9844 22.9476 11.8337 21.8484 11.6204 21.2461C11.468 20.8172 11.6274 20.3531 11.4305 19.95C11.229 19.5351 10.8165 19.3711 10.3805 19.5093C8.95084 19.964 9.40553 21.5273 10.0383 22.3875C10.7157 23.3086 11.5477 23.864 12.4829 24.1687C15.9727 25.3054 17.6508 23.5101 17.9438 22.1953C18.1594 21.232 18.136 20.3976 17.5219 19.6242Z" fill="#6B4B46"/>
<path d="M16.6781 11.4821C13.7086 17.8242 13.1976 25.8328 13.1976 25.8328" stroke="#6B4B46" stroke-width="0.625" stroke-miterlimit="10"/>
<path d="M19.1413 7.49063C21.1195 8.13516 21.5578 9.92344 21.4148 10.4109C21.2437 10.9828 19.0523 8.75625 15.7945 8.88985C14.6554 8.93672 14.9859 8.23828 15.5132 7.83516C16.2093 7.30313 17.3788 6.91875 19.1413 7.49063Z" fill="#6D4C41"/>
<path d="M19.1413 7.49063C21.1195 8.13516 21.5578 9.92344 21.4148 10.4109C21.2437 10.9828 19.0523 8.75625 15.7945 8.88985C14.6554 8.93672 14.9859 8.23828 15.5132 7.83516C16.2093 7.30313 17.3788 6.91875 19.1413 7.49063Z" fill="#6B4B46"/>
<path d="M22.6149 13.7953C22.8633 13.6242 23.6977 13.9195 23.9321 15.5531C24.0469 16.3523 24.0821 17.1258 24.0821 17.1258C24.0821 17.1258 23.0977 16.2422 22.7719 15.6211C22.3618 14.8359 22.2024 14.0765 22.6149 13.7953Z" fill="#E2A610"/>
</svg>
