<svg width="38" height="38" viewBox="0 0 38 38" fill="none" xmlns="http://www.w3.org/2000/svg">
<mask id="mask0_723_1367" style="mask-type:luminance" maskUnits="userSpaceOnUse" x="3" y="3" width="32" height="32">
<path d="M30.875 4.75H7.125C6.49511 4.75 5.89102 5.00022 5.44562 5.44562C5.00022 5.89102 4.75 6.49511 4.75 7.125V30.875C4.75 31.5049 5.00022 32.109 5.44562 32.5544C5.89102 32.9998 6.49511 33.25 7.125 33.25H30.875C31.5049 33.25 32.109 32.9998 32.5544 32.5544C32.9998 32.109 33.25 31.5049 33.25 30.875V7.125C33.25 6.49511 32.9998 5.89102 32.5544 5.44562C32.109 5.00022 31.5049 4.75 30.875 4.75Z" fill="white" stroke="white" stroke-width="2" stroke-linejoin="round"/>
<path d="M19 22.6615V19.4948C19.9395 19.4948 20.8578 19.2162 21.639 18.6943C22.4201 18.1724 23.0289 17.4305 23.3884 16.5626C23.7479 15.6946 23.842 14.7395 23.6587 13.8181C23.4755 12.8967 23.0231 12.0504 22.3588 11.3861C21.6945 10.7218 20.8481 10.2694 19.9267 10.0861C19.0053 9.9028 18.0502 9.99687 17.1823 10.3564C16.3143 10.7159 15.5725 11.3247 15.0505 12.1059C14.5286 12.887 14.25 13.8054 14.25 14.7448" stroke="black" stroke-width="2" stroke-linecap="round" stroke-linejoin="round"/>
<path fill-rule="evenodd" clip-rule="evenodd" d="M18.9999 29.7865C19.5248 29.7865 20.0282 29.5779 20.3994 29.2068C20.7706 28.8356 20.9791 28.3322 20.9791 27.8073C20.9791 27.2824 20.7706 26.779 20.3994 26.4078C20.0282 26.0366 19.5248 25.8281 18.9999 25.8281C18.475 25.8281 17.9716 26.0366 17.6004 26.4078C17.2293 26.779 17.0208 27.2824 17.0208 27.8073C17.0208 28.3322 17.2293 28.8356 17.6004 29.2068C17.9716 29.5779 18.475 29.7865 18.9999 29.7865Z" fill="black"/>
</mask>
<g mask="url(#mask0_723_1367)">
<path d="M0 0H38V38H0V0Z" fill="#0D99FF"/>
</g>
</svg>
