<svg width="264" height="265" viewBox="0 0 264 265" fill="none" xmlns="http://www.w3.org/2000/svg">
<path d="M132 154.5V242.5H44C44 219.161 53.2714 196.778 69.7746 180.275C86.2778 163.771 108.661 154.5 132 154.5ZM132 143.5C95.535 143.5 66 113.965 66 77.5C66 41.035 95.535 11.5 132 11.5C168.465 11.5 198 41.035 198 77.5C198 113.965 168.465 143.5 132 143.5ZM229.108 229.608L198 260.727L166.892 229.608C160.737 223.455 156.545 215.615 154.846 207.079C153.148 198.544 154.018 189.696 157.348 181.656C160.678 173.615 166.317 166.742 173.554 161.907C180.79 157.071 189.297 154.491 198 154.491C206.703 154.491 215.21 157.071 222.446 161.907C229.683 166.742 235.322 173.615 238.652 181.656C241.982 189.696 242.852 198.544 241.154 207.079C239.455 215.615 235.263 223.455 229.108 229.608ZM198 187.5C195.083 187.5 192.285 188.659 190.222 190.722C188.159 192.785 187 195.583 187 198.5C187 201.417 188.159 204.215 190.222 206.278C192.285 208.341 195.083 209.5 198 209.5C200.917 209.5 203.715 208.341 205.778 206.278C207.841 204.215 209 201.417 209 198.5C209 195.583 207.841 192.785 205.778 190.722C203.715 188.659 200.917 187.5 198 187.5Z" fill="#ABAAB4"/>
</svg>
