<svg width="50" height="51" viewBox="0 0 50 51" fill="none" xmlns="http://www.w3.org/2000/svg">
<path d="M38.9998 31.2498C39.729 29.479 40.1248 27.5831 40.1248 25.4998C40.1248 23.9998 39.8957 22.5623 39.4998 21.229C38.1457 21.5415 36.729 21.7081 35.2498 21.7081C32.2206 21.7114 29.235 20.9863 26.5447 19.594C23.8544 18.2017 21.5382 16.183 19.7915 13.7081C17.9248 18.2305 14.3992 21.8678 9.93734 23.8748C9.854 24.3956 9.854 24.9581 9.854 25.4998C9.854 27.4888 10.2458 29.4583 11.0069 31.2958C11.7681 33.1334 12.8837 34.8031 14.2901 36.2095C17.1305 39.0499 20.9829 40.6456 24.9998 40.6456C27.1873 40.6456 29.2915 40.1665 31.1873 39.3123C32.3748 41.5831 32.9165 42.7081 32.8748 42.7081C29.4582 43.854 26.8123 44.4165 24.9998 44.4165C19.9582 44.4165 15.1457 42.4373 11.604 38.8748C9.44786 36.7288 7.84623 34.0904 6.93734 31.1873H4.1665V21.7081H6.43734C7.12534 18.3592 8.70711 15.259 11.0148 12.7364C13.3225 10.2139 16.2701 8.36314 19.5447 7.38053C22.8193 6.39793 26.2989 6.32014 29.6141 7.15543C32.9294 7.99071 35.9567 9.7079 38.3748 12.1248C40.9994 14.7406 42.79 18.0754 43.5207 21.7081H45.8332V31.1873H45.7082L38.2915 37.9998L27.2498 36.7498V33.2706H37.3123L38.9998 31.2498ZM19.3123 25.0206C19.9373 25.0206 20.5415 25.2706 20.979 25.729C21.4187 26.1722 21.6654 26.7713 21.6654 27.3956C21.6654 28.02 21.4187 28.619 20.979 29.0623C20.5415 29.4998 19.9373 29.7498 19.3123 29.7498C17.9998 29.7498 16.9373 28.7081 16.9373 27.3956C16.9373 26.0831 17.9998 25.0206 19.3123 25.0206ZM30.6665 25.0206C31.979 25.0206 33.0207 26.0831 33.0207 27.3956C33.0207 28.7081 31.979 29.7498 30.6665 29.7498C29.354 29.7498 28.2915 28.7081 28.2915 27.3956C28.2915 26.7657 28.5417 26.1616 28.9871 25.7162C29.4325 25.2708 30.0366 25.0206 30.6665 25.0206Z" fill="#14AE5C"/>
</svg>
