<svg width="50" height="51" viewBox="0 0 50 51" fill="none" xmlns="http://www.w3.org/2000/svg">
<path d="M8.33317 42.1668C7.18734 42.1668 6.20678 41.7592 5.3915 40.9439C4.57623 40.1286 4.16789 39.1474 4.1665 38.0002V13.0002C4.1665 11.8543 4.57484 10.8738 5.3915 10.0585C6.20817 9.24322 7.18873 8.83488 8.33317 8.8335H41.6665C42.8123 8.8335 43.7936 9.24183 44.6103 10.0585C45.4269 10.8752 45.8346 11.8557 45.8332 13.0002V38.0002C45.8332 39.146 45.4255 40.1272 44.6103 40.9439C43.795 41.7606 42.8137 42.1682 41.6665 42.1668H8.33317ZM8.33317 17.1668H41.6665V13.0002H8.33317V17.1668ZM22.8123 34.9793L34.5832 23.2085L31.5623 20.1877L22.8123 28.9377L18.4373 24.5627L15.4165 27.5835L22.8123 34.9793Z" fill="#FF8A65"/>
</svg>
